<svg width="100" height="114" viewBox="0 0 100 114" fill="none" xmlns="http://www.w3.org/2000/svg">
<path fill-rule="evenodd" clip-rule="evenodd" d="M4.47578 43.2666C2.4578 33.933 0.375819 12.3944 8.19171 0.90921C13.2895 2.53205 24.6228 7.61822 34.922 16.3136C39.6798 14.8106 44.7453 14 50 14C53.9575 14 57.8076 14.4598 61.4999 15.3288C70.0509 8.80353 84.1835 0.402407 95.6663 1.33436C96.9793 7.54525 98.3884 23.7988 93.6828 39.6542C97.7067 46.8588 100 55.1616 100 64C100 91.6142 77.6142 114 50 114C43.2916 114 36.8917 112.679 31.0464 110.283C31.9651 109.912 32.827 109.489 33.632 109.013C37.312 106.878 39.9984 103.787 41.6912 99.7392C43.4576 95.6176 44.3408 90.576 44.3408 84.6144V38.136H28.4432V84.504C28.4432 87.5952 28.112 90.0976 27.4496 92.0112C26.7872 93.9248 25.6096 95.3232 23.9168 96.2064C22.2976 97.0896 19.9424 97.5312 16.8512 97.5312H14.864C14.1247 97.464 13.3853 97.3661 12.646 97.2375C4.77956 88.4031 0 76.7597 0 64C0 56.6002 1.60749 49.5758 4.49233 43.257L4.47578 43.2666Z" fill="#F99B29"/>
</svg>
